<?xml version="1.0" encoding="UTF-8"?><svg id="b" xmlns="http://www.w3.org/2000/svg" viewBox="0 0 1158.35 1068.36"><defs><style>.d{fill:#f36e21;}</style></defs><g id="c"><path class="d" d="M945.57,998.46c6.15,6.54-19.25,6.72-25.31,13.35s7.24,18.77,1.18,25.4-19.34-5.51-25.4,1.12,7.23,18.77,1.18,25.4-6.14,5.64-13.21.11c-92.88-72.69-98.71-65.8-185.8-145.34-87.09-79.54-74.96-92.83-162.05-172.36-87.09-79.54-99.23-66.24-186.33-145.78s-74.96-92.83-162.06-172.37C100.68,348.45,81.76,367.64.95,281.72c-6.15-6.54,19.25-6.72,25.31-13.35s-7.24-18.77-1.18-25.4,19.34,5.51,25.4-1.12-7.23-18.77-1.18-25.4,6.14-5.64,13.21-.11c92.88,72.69,98.71,65.8,185.8,145.34,87.09,79.54,74.96,92.83,162.05,172.36s99.23,66.24,186.33,145.78c87.1,79.54,71.4,97.62,162.4,172.67s105.67,60.05,186.48,145.97Z"/><path class="d" d="M1051.48,892.55c6.15,6.54-19.25,6.72-25.31,13.35s7.24,18.77,1.18,25.4-19.34-5.51-25.4,1.12,7.23,18.77,1.18,25.4-6.14,5.64-13.21.11c-92.88-72.69-98.71-65.8-185.8-145.34-87.09-79.54-74.96-92.83-162.05-172.36-87.09-79.54-99.23-66.24-186.33-145.78-87.1-79.54-74.96-92.83-162.06-172.37-87.1-79.54-106.01-60.35-186.82-146.27-6.15-6.54,19.25-6.72,25.31-13.35s-7.24-18.77-1.18-25.4,19.34,5.51,25.4-1.12-7.23-18.77-1.18-25.4,6.14-5.64,13.21-.11c92.88,72.69,98.71,65.8,185.8,145.34,87.09,79.54,74.96,92.83,162.05,172.36s99.23,66.24,186.33,145.78c87.1,79.54,71.4,97.62,162.4,172.67s105.67,60.05,186.48,145.97Z"/><path class="d" d="M1157.4,786.63c6.15,6.54-19.25,6.72-25.31,13.35s7.24,18.77,1.18,25.4-19.34-5.51-25.4,1.12,7.23,18.77,1.18,25.4-6.14,5.64-13.21.11c-92.88-72.69-98.71-65.8-185.8-145.34-87.09-79.54-74.96-92.83-162.05-172.36-87.09-79.54-99.23-66.24-186.33-145.78-87.1-79.54-74.96-92.83-162.06-172.37-87.1-79.54-106.01-60.35-186.82-146.27-6.15-6.54,19.25-6.72,25.31-13.35s-7.24-18.77-1.18-25.4,19.34,5.51,25.4-1.12-7.23-18.77-1.18-25.4,6.14-5.64,13.21-.11c92.88,72.69,98.71,65.8,185.8,145.34,87.09,79.54,74.96,92.83,162.05,172.36s99.23,66.24,186.33,145.78c87.1,79.54,71.4,97.62,162.4,172.67s105.67,60.05,186.48,145.97Z"/></g></svg>