<?xml version="1.0" encoding="UTF-8"?><svg id="a" xmlns="http://www.w3.org/2000/svg" viewBox="0 0 1366 768"><defs><style>.b{fill:#f36e21;}</style></defs><path class="b" d="M1516.81,676.53c6.15,6.54-19.25,6.72-25.31,13.35s7.24,18.77,1.18,25.4-19.34-5.51-25.4,1.12,7.23,18.77,1.18,25.4-6.14,5.64-13.21.11c-92.88-72.69-98.71-65.8-185.8-145.34-87.09-79.54-74.96-92.83-162.05-172.36-87.09-79.54-99.23-66.24-186.33-145.78s-74.96-92.83-162.06-172.37c-87.1-79.54-106.01-60.35-186.82-146.27-6.15-6.54,19.25-6.72,25.31-13.35s-7.24-18.77-1.18-25.4,19.34,5.51,25.4-1.12-7.23-18.77-1.18-25.4,6.14-5.64,13.21-.11c92.88,72.69,98.71,65.8,185.8,145.34,87.09,79.54,74.96,92.83,162.05,172.36s99.23,66.24,186.33,145.78c87.1,79.54,71.4,97.62,162.4,172.67s105.67,60.05,186.48,145.97Z"/><path class="b" d="M1622.72,570.62c6.15,6.54-19.25,6.72-25.31,13.35s7.24,18.77,1.18,25.4-19.34-5.51-25.4,1.12,7.23,18.77,1.18,25.4-6.14,5.64-13.21.11c-92.88-72.69-98.71-65.8-185.8-145.34-87.09-79.54-74.96-92.83-162.05-172.36-87.09-79.54-99.23-66.24-186.33-145.78C939.89,92.98,952.03,79.69,864.93.15c-87.1-79.54-106.01-60.35-186.82-146.27-6.15-6.54,19.25-6.72,25.31-13.35s-7.24-18.77-1.18-25.4,19.34,5.51,25.4-1.12-7.23-18.77-1.18-25.4,6.14-5.64,13.21-.11c92.88,72.69,98.71,65.8,185.8,145.34,87.09,79.54,74.96,92.83,162.05,172.36s99.23,66.24,186.33,145.78c87.1,79.54,71.4,97.62,162.4,172.67s105.67,60.05,186.48,145.97Z"/><path class="b" d="M1728.64,464.7c6.15,6.54-19.25,6.72-25.31,13.35s7.24,18.77,1.18,25.4-19.34-5.51-25.4,1.12,7.23,18.77,1.18,25.4-6.14,5.64-13.21.11c-92.88-72.69-98.71-65.8-185.8-145.34-87.09-79.54-74.96-92.83-162.05-172.36-87.09-79.54-99.23-66.24-186.33-145.78-87.1-79.54-74.96-92.83-162.06-172.37-87.1-79.54-106.01-60.35-186.82-146.27-6.15-6.54,19.25-6.72,25.31-13.35s-7.24-18.77-1.18-25.4,19.34,5.51,25.4-1.12-7.23-18.77-1.18-25.4,6.14-5.64,13.21-.11c92.88,72.69,98.71,65.8,185.8,145.34,87.09,79.54,74.96,92.83,162.05,172.36s99.23,66.24,186.33,145.78c87.1,79.54,71.4,97.62,162.4,172.67s105.67,60.05,186.48,145.97Z"/></svg>